# File created by Blade
# Date/Time:  Wed Apr 08 14:55:03 2015
# Frame Rate: 120.000 fps
#------------------------------------------------------
:FULLY-SPECIFIED
:DEGREES
1967
root 4.224436 34.010855 -7.058268 -24.438788 21.897288 -31.601133
Spine 18.056637 3.883823 27.301318
Head -16.878008 -18.966454 24.222352
LeftShoulder -18.623665 39.083038 23.245036
LeftArm 54.463523 -52.502504 -70.495944
LeftForeArm -0.544283 -0.000000 109.452567
LeftHand 15.363899 -0.000000 18.757432
LeftHandThumb1 -26.253704 0.000000 33.147579
RightShoulder -11.892611 7.540225 -37.335089
RightArm 51.878730 12.073355 12.573480
RightForeArm 9.303767 -0.000000 128.594517
RightHand 7.388013 -0.000000 -0.027680
RightHandThumb1 -24.326973 -0.000000 -32.862282
LeftUpLeg 3.277818 7.802617 25.260013
LeftLeg 16.576475 -0.000000 -0.000000
LeftFoot -11.836834 35.054096 -2.547966
LeftToeBase -5.788389 -0.000000 0.000000
RightUpLeg -95.174843 -62.722359 -6.890170
RightLeg -2.423996 -0.000000 0.000000
RightFoot 31.882995 -22.539302 -14.805452
RightToeBase 24.144425 -0.000000 -0.000000
1968
root 4.222278 34.046246 -7.048282 -21.803369 19.628392 -31.783673
Spine 15.875633 6.721669 27.892534
Head -15.626291 -19.231741 24.484272
LeftShoulder -20.291971 40.362798 21.602447
LeftArm 51.389735 -51.434963 -68.847955
LeftForeArm -0.208758 -0.000000 110.970798
LeftHand 14.502064 -0.000000 17.593960
LeftHandThumb1 -26.253704 0.000000 33.147579
RightShoulder -11.308722 8.043125 -37.096865
RightArm 52.671092 10.398756 13.862740
RightForeArm 9.099523 -0.000000 127.448739
RightHand 7.525027 -0.000000 0.572028
RightHandThumb1 -24.326973 -0.000000 -32.862282
LeftUpLeg 2.102217 7.859095 25.463649
LeftLeg 16.050372 -0.000000 -0.000000
LeftFoot -12.680096 36.142375 -3.276708
LeftToeBase -5.845577 -0.000000 0.000000
RightUpLeg -87.333646 -62.990052 -13.655252
RightLeg -1.818687 -0.000000 0.000000
RightFoot 32.516070 -23.596063 -14.830981
RightToeBase 23.912743 -0.000000 -0.000000
1969
root 4.233398 34.089599 -7.047428 -19.105089 17.311275 -32.107447
Spine 13.590623 9.652656 28.428413
Head -14.381417 -19.396589 24.790858
LeftShoulder -22.235396 41.678500 19.826604
LeftArm 48.948756 -50.037974 -67.771483
LeftForeArm 0.118878 0.000000 112.409043
LeftHand 14.196848 -0.000000 16.219678
LeftHandThumb1 -26.253704 0.000000 33.147579
RightShoulder -10.673300 8.792277 -36.765304
RightArm 53.304043 8.379324 15.122848
RightForeArm 8.521618 -0.000000 126.361056
RightHand 7.710495 -0.000000 1.281492
RightHandThumb1 -24.326973 -0.000000 -32.862282
LeftUpLeg 0.918761 7.923307 25.741572
LeftLeg 15.506779 -0.000000 -0.000000
LeftFoot -13.258780 36.952575 -3.818813
LeftToeBase -6.636511 -0.000000 0.000000
RightUpLeg -79.782398 -62.429966 -19.771220
RightLeg -1.349013 -0.000000 0.000000
RightFoot 33.132745 -25.020056 -14.228785
RightToeBase 23.851363 -0.000000 -0.000000
1970
root 4.251934 34.123670 -7.051589 -16.352787 15.228639 -32.411844
Spine 11.146442 12.397275 28.608851
Head -13.112371 -19.530003 25.083061
LeftShoulder -24.296474 42.995339 17.990551
LeftArm 46.723985 -48.493262 -66.908987
LeftForeArm 0.718228 -0.000000 113.764033
LeftHand 13.548198 -0.000000 15.704523
LeftHandThumb1 -26.253704 0.000000 33.147579
RightShoulder -10.107704 9.652411 -36.443512
RightArm 53.864340 5.940885 16.316047
RightForeArm 7.238579 -0.000000 125.258592
RightHand 7.943960 -0.000000 1.379601
RightHandThumb1 -24.326973 -0.000000 -32.862282
LeftUpLeg -0.340956 7.862780 25.913391
LeftLeg 15.043823 -0.000000 -0.000000
LeftFoot -14.282392 37.165445 -4.957628
LeftToeBase -6.525472 -0.000000 0.000000
RightUpLeg -72.568149 -61.310633 -25.462955
RightLeg -1.103304 -0.000000 0.000000
RightFoot 34.485505 -25.885961 -14.166409
RightToeBase 23.114544 -0.000000 -0.000000
1971
root 4.281714 34.150600 -7.050985 -13.751959 13.345215 -32.649648
Spine 8.814488 14.914823 28.511116
Head -12.033548 -19.589293 25.336569
LeftShoulder -27.234160 45.173277 15.040027
LeftArm 46.609140 -47.290231 -67.343704
LeftForeArm 1.128958 -0.000000 114.824763
LeftHand 13.174965 -0.000000 14.786451
LeftHandThumb1 -26.253704 0.000000 33.147579
RightShoulder -9.487194 10.897695 -36.125648
RightArm 53.904212 3.005383 17.379957
RightForeArm 4.503914 -0.000000 124.635562
RightHand 8.610025 -0.000000 1.037290
RightHandThumb1 -24.326973 -0.000000 -32.862282
LeftUpLeg -1.429271 7.581734 26.000103
LeftLeg 14.588546 -0.000000 -0.000000
LeftFoot -15.704665 36.082016 -6.779212
LeftToeBase -6.962037 -0.000000 0.000000
RightUpLeg -66.083923 -59.680993 -30.371655
RightLeg -0.847326 -0.000000 0.000000
RightFoot 35.741703 -26.658680 -13.642928
RightToeBase 22.257793 -0.000000 -0.000000
1972
root 4.321585 34.169921 -7.044137 -11.357424 11.671886 -32.754055
Spine 6.647391 17.028635 28.095557
Head -11.116059 -19.574586 25.603088
LeftShoulder -29.242243 46.055012 13.307742
LeftArm 44.246006 -45.634045 -66.862317
LeftForeArm 1.454426 -0.000000 116.012080
LeftHand 12.625297 -0.000000 12.991427
LeftHandThumb1 -26.253704 0.000000 33.147579
RightShoulder -8.890711 11.889666 -35.718935
RightArm 54.337548 0.464260 18.648512
RightForeArm 3.133261 -0.000000 123.581419
RightHand 9.554614 -0.000000 1.291123
RightHandThumb1 -24.326973 -0.000000 -32.862282
LeftUpLeg -2.291808 6.989734 25.914011
LeftLeg 14.088789 -0.000000 -0.000000
LeftFoot -16.863953 33.962722 -8.411106
LeftToeBase -8.234239 -0.000000 0.000000
RightUpLeg -60.967288 -57.825514 -33.906991
RightLeg -0.448972 -0.000000 0.000000
RightFoot 37.053735 -26.933418 -13.206396
RightToeBase 21.636617 -0.000000 -0.000000
